<?xml version="1.0" encoding="utf-8"?>
<!-- Generator: Adobe Illustrator 19.0.0, SVG Export Plug-In . SVG Version: 6.00 Build 0)  -->
<svg version="1.1" id="Layer_1" xmlns="http://www.w3.org/2000/svg" xmlns:xlink="http://www.w3.org/1999/xlink" x="0px" y="0px"
	 viewBox="-291 381 28 16" style="enable-background:new -291 381 28 16;" xml:space="preserve">
<style type="text/css">
	.st0{fill:#459AD5;}
	.st1{fill:#F05555;}
	.st2{fill:#FFFFFF;}
</style>
<rect id="XMLID_30_" x="-284" y="383" class="st0" width="11.7" height="2"/>
<rect id="XMLID_29_" x="-284" y="387" class="st0" width="11.7" height="2"/>
<path id="XMLID_28_" class="st1" d="M-265,397h-24c-1.1,0-2-0.9-2-1.9v-12.2c0-1.1,0.9-1.9,2-1.9h24c1.1,0,2,0.9,2,1.9V395
	C-263,396.1-263.9,397-265,397z"/>
<g id="XMLID_20_">
	<path id="XMLID_25_" class="st2" d="M-280.9,390.6c-0.6,1.5-2.1,2.4-3.9,2.4c-2.4,0-4.2-1.6-4.2-4s1.8-4,4.2-4c1.9,0,3.3,1,3.8,2.2
		l-1.6,0.4c-0.4-0.6-1.1-1.2-2.3-1.2c-1.5,0-2.5,1-2.5,2.6s1.1,2.6,2.5,2.6c1.2,0,2-0.6,2.4-1.3L-280.9,390.6z"/>
	<path id="XMLID_23_" class="st2" d="M-278.6,390.5c0.1,0.8,0.8,1.2,1.9,1.2c0.9,0,1.4-0.3,1.4-1c0-0.9-1.1-0.9-2.1-1.1
		c-1.1-0.2-2.5-0.7-2.5-2.3c0-1.5,1.2-2.3,3-2.3c1.6,0,2.8,0.6,3.2,2l-1.6,0.4c-0.2-0.6-0.8-1-1.7-1s-1.3,0.3-1.3,0.9
		c0,0.8,0.9,0.9,2,1.1c1.2,0.2,2.6,0.7,2.6,2.3c0,1.5-1.1,2.3-3.1,2.3c-1.4,0-3-0.4-3.4-2.1L-278.6,390.5z"/>
	<path id="XMLID_21_" class="st2" d="M-270.1,392.9l-3-7.7h1.8l1.4,3.8c0.6,1.5,0.8,2.2,0.8,2.3l0,0c0,0,0.3-0.8,0.8-2.2l1.4-3.8
		h1.8l-3,7.7L-270.1,392.9L-270.1,392.9L-270.1,392.9z"/>
</g>
</svg>
