<?xml version="1.0" encoding="utf-8"?>
<!-- Generator: Adobe Illustrator 19.0.0, SVG Export Plug-In . SVG Version: 6.00 Build 0)  -->
<svg version="1.1" id="Layer_1" xmlns="http://www.w3.org/2000/svg" xmlns:xlink="http://www.w3.org/1999/xlink" x="0px" y="0px"
	 width="42.5px" height="34px" viewBox="0 0 42.5 34" style="enable-background:new 0 0 42.5 34;" xml:space="preserve">
<style type="text/css">
	.st0{fill:#459AD5;}
	.st1{fill-rule:evenodd;clip-rule:evenodd;fill:#F05555;}
	.st2{fill-rule:evenodd;clip-rule:evenodd;fill:#42B655;}
	.st3{fill:#FFFFFF;}
	.st4{fill-rule:evenodd;clip-rule:evenodd;fill:#454545;}
</style>
<rect id="XMLID_30_" x="21.5" y="14" class="st0" width="11.7" height="2"/>
<rect id="XMLID_29_" x="21.5" y="18" class="st0" width="11.7" height="2"/>
<path id="XMLID_28_" class="st1" d="M40.5,28h-24c-1.1,0-2-0.9-2-1.9V13.9c0-1.1,0.9-1.9,2-1.9h24c1.1,0,2,0.9,2,1.9v12.1
	C42.5,27.1,41.6,28,40.5,28z"/>
<polygon id="XMLID_27_" class="st2" points="9.7,24.4 9.7,15 3.2,15 3.2,24.4 0,24.4 6.5,33 13,24.4 "/>
<g id="XMLID_20_">
	<path id="XMLID_25_" class="st3" d="M24.6,21.6C24,23.1,22.5,24,20.7,24c-2.4,0-4.2-1.6-4.2-4c0-2.4,1.8-4,4.2-4
		c1.9,0,3.3,1,3.8,2.2l-1.6,0.4c-0.4-0.6-1.1-1.2-2.3-1.2c-1.5,0-2.5,1-2.5,2.6c0,1.6,1.1,2.6,2.5,2.6c1.2,0,2-0.6,2.4-1.3
		L24.6,21.6z"/>
	<path id="XMLID_23_" class="st3" d="M26.9,21.5c0.1,0.8,0.8,1.2,1.9,1.2c0.9,0,1.4-0.3,1.4-1c0-0.9-1.1-0.9-2.1-1.1
		c-1.1-0.2-2.5-0.7-2.5-2.3c0-1.5,1.2-2.3,3-2.3c1.6,0,2.8,0.6,3.2,2l-1.6,0.4c-0.2-0.6-0.8-1-1.7-1c-0.9,0-1.3,0.3-1.3,0.9
		c0,0.8,0.9,0.9,2,1.1c1.2,0.2,2.6,0.7,2.6,2.3c0,1.5-1.1,2.3-3.1,2.3c-1.4,0-3-0.4-3.4-2.1L26.9,21.5z"/>
	<path id="XMLID_21_" class="st3" d="M35.4,23.9l-3-7.7h1.8l1.4,3.8c0.6,1.5,0.8,2.2,0.8,2.3h0c0,0,0.3-0.8,0.8-2.2l1.4-3.8h1.8
		l-3,7.7H35.4z"/>
</g>
<g id="XMLID_15_">
	<path id="XMLID_19_" class="st4" d="M34.5,31c0,0.5-0.5,1-1,1h-22c-0.6,0-1-0.5-1-1v-1l-2,2.4c0.2,0.9,1,1.6,2,1.6h24
		c1.1,0,2-0.9,2-2v-2h-2V31z"/>
	<path id="XMLID_16_" class="st4" d="M34.5,0H17l-2,2l-4.5,4.5l-2,2V13h2v-2h8V2h15c0.5,0,1,0.5,1,1v7h2V2C36.5,0.9,35.6,0,34.5,0z
		 M16.5,9h-5.6l5.6-5.7V9z"/>
</g>
</svg>
