<?xml version="1.0" encoding="utf-8"?>
<!-- Generator: Adobe Illustrator 19.2.1, SVG Export Plug-In . SVG Version: 6.00 Build 0)  -->
<svg version="1.1" id="Layer_1" xmlns="http://www.w3.org/2000/svg" xmlns:xlink="http://www.w3.org/1999/xlink" x="0px" y="0px"
	 width="190.3px" height="33.8px" viewBox="0 0 190.3 33.8" style="enable-background:new 0 0 190.3 33.8;" xml:space="preserve">
<style type="text/css">
	.st0{fill:#FFF;}
	.st1{fill-rule:evenodd;clip-rule:evenodd;fill:#FFF;}
	.st2{fill-rule:evenodd;clip-rule:evenodd;fill:#FFF;}
</style>
<g>
	<g>
		<path class="st0" d="M65.6,8.8c-0.9,0-1.7,0.8-1.7,1.7v1.1c-1.1-0.9-1.8-1.6-2.9-2.1C60,9,58.8,8.8,57.5,8.8
			c-1.4,0-2.7,0.2-3.8,0.7c-1.1,0.5-2.2,1.2-3.1,2.2c-0.9,0.9-1.5,1.9-2,3.1c-0.5,1.2-0.7,2.4-0.7,3.8c0,2.8,0.9,5.2,2.8,7.1
			c1.9,1.9,4.2,2.8,7.1,2.8c1.2,0,2.3-0.2,3.3-0.7c1.1-0.5,1.7-1.1,2.8-2v0.7c0,0.9,0.8,1.7,1.7,1.7c0.9,0,1.7-0.8,1.7-1.7v-16
			C67.4,9.5,66.6,8.8,65.6,8.8z M62.3,23.3c-1.3,1.3-2.7,1.9-4.4,1.9c-1.8,0-3.4-0.6-4.6-1.9c-1.3-1.3-1.9-2.9-1.9-4.8
			c0-1.8,0.6-3.3,1.9-4.6c1.3-1.3,2.8-1.9,4.6-1.9c1.7,0,3.2,0.7,4.5,2c1.3,1.3,1.9,2.9,1.9,4.7C64.3,20.5,63.6,22,62.3,23.3z
			 M79.9,8.9c-1.1,0-2.2,0.2-3,0.6c-0.9,0.4-1.4,0.8-2.5,1.9v-0.9c0-0.9-0.8-1.7-1.7-1.7s-1.7,0.8-1.7,1.7v16c0,0.9,0.8,1.7,1.7,1.7
			s1.7-0.8,1.7-1.7v-6.9c0-2.6,0.6-4.5,1.3-5.6c0.8-1.1,2.1-1.7,3.8-1.7c1.6,0,3,0.5,3.8,1.4c0.7,1,1.4,2.4,1.4,4.4v8.4
			c0,0.9,0.8,1.7,1.7,1.7s1.7-0.8,1.7-1.7v-9.1c0-2.7-0.9-4.8-2.3-6.2C84.5,9.7,82.3,8.9,79.9,8.9z M109.2,8.8
			c-0.9,0-1.7,0.8-1.7,1.7v1.1c-1.1-0.9-1.8-1.6-2.9-2.1c-1.1-0.5-2.2-0.7-3.5-0.7c-1.4,0-2.7,0.2-3.8,0.7c-1.1,0.5-2.2,1.2-3.1,2.2
			c-0.9,0.9-1.5,1.9-2,3.1c-0.5,1.2-0.7,2.4-0.7,3.8c0,2.8,0.9,5.2,2.8,7.1c1.9,1.9,4.2,2.8,7.1,2.8c1.2,0,2.3-0.2,3.4-0.7
			c1.1-0.5,1.7-1.1,2.8-2v0.7c0,0.9,0.8,1.7,1.7,1.7c0.9,0,1.7-0.8,1.7-1.7v-16C110.9,9.5,110.2,8.8,109.2,8.8z M105.9,23.3
			c-1.3,1.3-2.7,1.9-4.4,1.9c-1.8,0-3.4-0.6-4.6-1.9c-1.3-1.3-1.9-2.9-1.9-4.8c0-1.8,0.6-3.3,1.9-4.6c1.3-1.3,2.8-1.9,4.6-1.9
			c1.7,0,3.2,0.7,4.5,2c1.3,1.3,1.9,2.9,1.9,4.7C107.8,20.5,107.1,22,105.9,23.3z M117.2,3.1c-0.9,0-1.7,0.8-1.7,1.7v21.7
			c0,0.9,0.8,1.7,1.7,1.7c0.9,0,1.7-0.8,1.7-1.7V4.8C118.9,3.8,118.2,3.1,117.2,3.1z M136.6,8.8c-0.7,0-1.3,0.4-1.6,1.1L130,22.8
			l-4.7-12.9c-0.2-0.7-0.9-1.1-1.6-1.1c-1.2,0-2,1.2-1.6,2.3l6,16.1l-1.7,4.4c-0.4,1.1,0.4,2.3,1.6,2.3h0c0.7,0,1.3-0.4,1.6-1
			l8.8-21.7C138.7,10,137.8,8.8,136.6,8.8z M149.2,8.8h-1.7v-4c0-0.9-0.8-1.7-1.7-1.7c-0.9,0-1.7,0.8-1.7,1.7v4h-1.7
			c-0.9,0-1.7,0.8-1.7,1.7c0,0.9,0.8,1.7,1.7,1.7h1.7v14.3c0,0.9,0.8,1.7,1.7,1.7c0.9,0,1.7-0.8,1.7-1.7V12.2h1.7
			c0.9,0,1.7-0.8,1.7-1.7C150.9,9.5,150.1,8.8,149.2,8.8z M155.9,3.1c-0.9,0-1.7,0.8-1.7,1.7c0,0.9,0.8,1.7,1.7,1.7
			c0.9,0,1.7-0.8,1.7-1.7C157.6,3.8,156.9,3.1,155.9,3.1z M155.9,8.8c-0.9,0-1.7,0.8-1.7,1.7v16c0,0.9,0.8,1.7,1.7,1.7
			c0.9,0,1.7-0.8,1.7-1.7v-16C157.6,9.5,156.9,8.8,155.9,8.8z M169.6,8.8h-2.8c0-0.9,0.3-1.4,0.7-1.8c0.2-0.2,0.7-0.6,1.1-0.7
			c0.4-0.1,1.7-0.7,1.2-2.1c-0.3-1-1.3-1.1-1.8-1.1c-1.3,0.1-2.2,0.6-3,1.3c-1.1,1-1.8,2.4-1.8,4.4v0.1h-1.7c-0.9,0-1.7,0.8-1.7,1.7
			c0,0.9,0.8,1.7,1.7,1.7h1.7v14.3c0,0.9,0.8,1.7,1.7,1.7c0.9,0,1.7-0.8,1.7-1.7V12.2h2.9c0.9,0,1.7-0.8,1.7-1.7
			C171.3,9.5,170.6,8.8,169.6,8.8z M188.6,8.8L188.6,8.8c-0.7,0-1.3,0.4-1.6,1.1l-5.1,12.9l-4.7-12.9c-0.2-0.7-0.9-1.1-1.6-1.1h-0.1
			c-1.2,0-2,1.2-1.6,2.3l6,16.1l-1.7,4.4c-0.4,1.1,0.4,2.3,1.6,2.3c0.7,0,1.3-0.4,1.6-1l8.8-21.7C190.6,10,189.8,8.8,188.6,8.8z"/>
	</g>
</g>
<path class="st1" d="M31.8,29.6c-0.8,0-1.4-0.6-1.4-1.4v-1.4v-1c-3,4.5-8,7.4-13.8,7.4C7.4,33.2,0,25.8,0,16.6C0,7.4,7.4,0,16.6,0
	c5.8,0,10.8,2.9,13.8,7.4V7.1V7h0c0.1-0.7,0.7-1.3,1.4-1.3c0.7,0,1.3,0.6,1.4,1.3h0v0.1v2.1v17.6v1.4C33.2,28.9,32.6,29.6,31.8,29.6
	z M16.6,2.8C9,2.8,2.8,9,2.8,16.6c0,7.6,6.2,13.8,13.8,13.8c7.6,0,13.8-6.2,13.8-13.8C30.4,9,24.2,2.8,16.6,2.8z"/>
<g>
	<g>
		<path class="st2" d="M10.9,15.6c-0.9,0-1.6,0.7-1.6,1.6v5.3c0,0.9,0.7,1.6,1.6,1.6s1.6-0.7,1.6-1.6v-5.3
			C12.4,16.3,11.7,15.6,10.9,15.6z M16.6,13c-0.9,0-1.6,0.7-1.6,1.6v7.9c0,0.9,0.7,1.6,1.6,1.6c0.9,0,1.6-0.7,1.6-1.6v-7.9
			C18.2,13.7,17.5,13,16.6,13z M22.3,9.1c-0.9,0-1.6,0.7-1.6,1.6v11.8c0,0.9,0.7,1.6,1.6,1.6c0.9,0,1.6-0.7,1.6-1.6V10.7
			C23.9,9.8,23.2,9.1,22.3,9.1z"/>
	</g>
</g>
</svg>
