<?xml version="1.0" encoding="utf-8"?>
<!-- Generator: Adobe Illustrator 19.0.0, SVG Export Plug-In . SVG Version: 6.00 Build 0)  -->
<svg version="1.1" id="Layer_1" xmlns="http://www.w3.org/2000/svg" xmlns:xlink="http://www.w3.org/1999/xlink" x="0px" y="0px"
	 width="33.2px" height="33.2px" viewBox="-478.3 346.3 33.2 33.2" style="enable-background:new -478.3 346.3 33.2 33.2;"
	 xml:space="preserve">
<style type="text/css">
	.st0{fill:#23282D;}
	.st1{fill:#9EA3A8;}
</style>
<path class="st0" d="M-446.5,375.9c-0.8,0-1.4-0.6-1.4-1.4v-1.4v-1c-3,4.5-8,7.4-13.8,7.4c-9.2,0-16.6-7.4-16.6-16.6
	c0-9.2,7.4-16.6,16.6-16.6c5.8,0,10.8,2.9,13.8,7.4v-0.3v-0.1l0,0c0.1-0.7,0.7-1.3,1.4-1.3c0.7,0,1.3,0.6,1.4,1.3l0,0v0.1v2.1v17.6
	v1.4C-445.1,375.2-445.7,375.9-446.5,375.9z M-461.7,349.1c-7.6,0-13.8,6.2-13.8,13.8s6.2,13.8,13.8,13.8s13.8-6.2,13.8-13.8
	S-454.1,349.1-461.7,349.1z"/>
<g>
	<g>
		<path class="st1" d="M-467.4,361.9c-0.9,0-1.6,0.7-1.6,1.6v5.3c0,0.9,0.7,1.6,1.6,1.6c0.9,0,1.6-0.7,1.6-1.6v-5.3
			C-465.9,362.6-466.6,361.9-467.4,361.9z M-461.7,359.3c-0.9,0-1.6,0.7-1.6,1.6v7.9c0,0.9,0.7,1.6,1.6,1.6s1.6-0.7,1.6-1.6v-7.9
			C-460.1,360-460.8,359.3-461.7,359.3z M-456,355.4c-0.9,0-1.6,0.7-1.6,1.6v11.8c0,0.9,0.7,1.6,1.6,1.6s1.6-0.7,1.6-1.6V357
			C-454.4,356.1-455.1,355.4-456,355.4z"/>
	</g>
</g>
</svg>
